<mxfile host="app.diagrams.net" modified="2022-02-26T22:11:19.945Z" agent="5.0 (Windows)" etag="asC740viI7SVs60-oczh" version="16.5.2" type="github">
  <diagram id="80FGu1FU1XBMkjbpCSEx" name="Page-1">
    <mxGraphModel dx="1094" dy="600" grid="1" gridSize="10" guides="1" tooltips="1" connect="1" arrows="1" fold="1" page="1" pageScale="1" pageWidth="827" pageHeight="1169" math="0" shadow="0">
      <root>
        <mxCell id="0" />
        <mxCell id="1" parent="0" />
        <mxCell id="-lu-DPMYhBikADUUlQfp-3" value="" style="rounded=1;whiteSpace=wrap;html=1;" vertex="1" parent="1">
          <mxGeometry x="240" y="80" width="120" height="440" as="geometry" />
        </mxCell>
        <mxCell id="-lu-DPMYhBikADUUlQfp-69" style="edgeStyle=orthogonalEdgeStyle;rounded=0;orthogonalLoop=1;jettySize=auto;html=1;exitX=0;exitY=0.75;exitDx=0;exitDy=0;entryX=1;entryY=0.75;entryDx=0;entryDy=0;" edge="1" parent="1" source="-lu-DPMYhBikADUUlQfp-56" target="-lu-DPMYhBikADUUlQfp-5">
          <mxGeometry relative="1" as="geometry" />
        </mxCell>
        <mxCell id="-lu-DPMYhBikADUUlQfp-48" style="edgeStyle=orthogonalEdgeStyle;rounded=0;orthogonalLoop=1;jettySize=auto;html=1;exitX=1;exitY=0.5;exitDx=0;exitDy=0;entryX=0;entryY=0.5;entryDx=0;entryDy=0;" edge="1" parent="1" source="-lu-DPMYhBikADUUlQfp-5" target="-lu-DPMYhBikADUUlQfp-56">
          <mxGeometry relative="1" as="geometry">
            <mxPoint x="680" y="219.9310344827586" as="targetPoint" />
          </mxGeometry>
        </mxCell>
        <mxCell id="-lu-DPMYhBikADUUlQfp-23" value="" style="rounded=1;whiteSpace=wrap;html=1;" vertex="1" parent="1">
          <mxGeometry x="520" y="80" width="120" height="440" as="geometry" />
        </mxCell>
        <mxCell id="-lu-DPMYhBikADUUlQfp-1" value="Actor" style="shape=umlActor;verticalLabelPosition=bottom;verticalAlign=top;html=1;outlineConnect=0;" vertex="1" parent="1">
          <mxGeometry x="40" y="260" width="40" height="80" as="geometry" />
        </mxCell>
        <mxCell id="-lu-DPMYhBikADUUlQfp-4" value="login" style="rounded=1;whiteSpace=wrap;html=1;" vertex="1" parent="1">
          <mxGeometry x="200" y="120" width="80" height="40" as="geometry" />
        </mxCell>
        <mxCell id="-lu-DPMYhBikADUUlQfp-5" value="attack" style="rounded=1;whiteSpace=wrap;html=1;" vertex="1" parent="1">
          <mxGeometry x="200" y="200" width="80" height="40" as="geometry" />
        </mxCell>
        <mxCell id="-lu-DPMYhBikADUUlQfp-6" value="&lt;div&gt;user&lt;/div&gt;&lt;div&gt;action2&lt;/div&gt;" style="rounded=1;whiteSpace=wrap;html=1;" vertex="1" parent="1">
          <mxGeometry x="200" y="280" width="80" height="40" as="geometry" />
        </mxCell>
        <mxCell id="-lu-DPMYhBikADUUlQfp-7" value="&lt;div&gt;player&lt;/div&gt;&lt;div&gt;action2&lt;br&gt;&lt;/div&gt;" style="rounded=1;whiteSpace=wrap;html=1;" vertex="1" parent="1">
          <mxGeometry x="200" y="360" width="80" height="40" as="geometry" />
        </mxCell>
        <mxCell id="-lu-DPMYhBikADUUlQfp-8" value="etc" style="rounded=1;whiteSpace=wrap;html=1;" vertex="1" parent="1">
          <mxGeometry x="200" y="440" width="80" height="40" as="geometry" />
        </mxCell>
        <mxCell id="-lu-DPMYhBikADUUlQfp-9" value="Game" style="text;html=1;strokeColor=none;fillColor=none;align=center;verticalAlign=middle;whiteSpace=wrap;rounded=0;" vertex="1" parent="1">
          <mxGeometry x="270" y="50" width="60" height="30" as="geometry" />
        </mxCell>
        <mxCell id="-lu-DPMYhBikADUUlQfp-12" value="" style="endArrow=classic;html=1;rounded=0;entryX=0;entryY=0.5;entryDx=0;entryDy=0;" edge="1" parent="1" source="-lu-DPMYhBikADUUlQfp-1" target="-lu-DPMYhBikADUUlQfp-4">
          <mxGeometry width="50" height="50" relative="1" as="geometry">
            <mxPoint x="80" y="260" as="sourcePoint" />
            <mxPoint x="130" y="210" as="targetPoint" />
          </mxGeometry>
        </mxCell>
        <mxCell id="-lu-DPMYhBikADUUlQfp-13" value="" style="endArrow=classic;html=1;rounded=0;entryX=0;entryY=0.5;entryDx=0;entryDy=0;exitX=1;exitY=0.3333333333333333;exitDx=0;exitDy=0;exitPerimeter=0;" edge="1" parent="1" source="-lu-DPMYhBikADUUlQfp-1" target="-lu-DPMYhBikADUUlQfp-5">
          <mxGeometry width="50" height="50" relative="1" as="geometry">
            <mxPoint x="90" y="290" as="sourcePoint" />
            <mxPoint x="130" y="220" as="targetPoint" />
          </mxGeometry>
        </mxCell>
        <mxCell id="-lu-DPMYhBikADUUlQfp-14" value="" style="endArrow=classic;html=1;rounded=0;entryX=0;entryY=0.5;entryDx=0;entryDy=0;" edge="1" parent="1" source="-lu-DPMYhBikADUUlQfp-1" target="-lu-DPMYhBikADUUlQfp-6">
          <mxGeometry width="50" height="50" relative="1" as="geometry">
            <mxPoint x="110" y="370" as="sourcePoint" />
            <mxPoint x="160" y="320" as="targetPoint" />
          </mxGeometry>
        </mxCell>
        <mxCell id="-lu-DPMYhBikADUUlQfp-15" value="" style="endArrow=classic;html=1;rounded=0;entryX=0;entryY=0.5;entryDx=0;entryDy=0;" edge="1" parent="1" source="-lu-DPMYhBikADUUlQfp-1" target="-lu-DPMYhBikADUUlQfp-8">
          <mxGeometry width="50" height="50" relative="1" as="geometry">
            <mxPoint x="80" y="360" as="sourcePoint" />
            <mxPoint x="190" y="360" as="targetPoint" />
          </mxGeometry>
        </mxCell>
        <mxCell id="-lu-DPMYhBikADUUlQfp-16" value="" style="endArrow=classic;html=1;rounded=0;entryX=0;entryY=0.5;entryDx=0;entryDy=0;" edge="1" parent="1" source="-lu-DPMYhBikADUUlQfp-1" target="-lu-DPMYhBikADUUlQfp-7">
          <mxGeometry width="50" height="50" relative="1" as="geometry">
            <mxPoint x="130" y="380" as="sourcePoint" />
            <mxPoint x="180" y="330" as="targetPoint" />
          </mxGeometry>
        </mxCell>
        <mxCell id="-lu-DPMYhBikADUUlQfp-17" value="login" style="rounded=1;whiteSpace=wrap;html=1;" vertex="1" parent="1">
          <mxGeometry x="480" y="120" width="80" height="40" as="geometry" />
        </mxCell>
        <mxCell id="-lu-DPMYhBikADUUlQfp-19" value="etc" style="rounded=1;whiteSpace=wrap;html=1;" vertex="1" parent="1">
          <mxGeometry x="480" y="280" width="80" height="40" as="geometry" />
        </mxCell>
        <mxCell id="-lu-DPMYhBikADUUlQfp-20" value="etc" style="rounded=1;whiteSpace=wrap;html=1;" vertex="1" parent="1">
          <mxGeometry x="480" y="360" width="80" height="40" as="geometry" />
        </mxCell>
        <mxCell id="-lu-DPMYhBikADUUlQfp-21" value="etc" style="rounded=1;whiteSpace=wrap;html=1;" vertex="1" parent="1">
          <mxGeometry x="480" y="440" width="80" height="40" as="geometry" />
        </mxCell>
        <mxCell id="-lu-DPMYhBikADUUlQfp-22" value="User" style="text;html=1;strokeColor=none;fillColor=none;align=center;verticalAlign=middle;whiteSpace=wrap;rounded=0;" vertex="1" parent="1">
          <mxGeometry x="550" y="50" width="60" height="30" as="geometry" />
        </mxCell>
        <mxCell id="-lu-DPMYhBikADUUlQfp-24" value="" style="endArrow=classic;html=1;rounded=0;exitX=1;exitY=0.5;exitDx=0;exitDy=0;entryX=0;entryY=0.5;entryDx=0;entryDy=0;" edge="1" parent="1" source="-lu-DPMYhBikADUUlQfp-4" target="-lu-DPMYhBikADUUlQfp-17">
          <mxGeometry width="50" height="50" relative="1" as="geometry">
            <mxPoint x="400" y="160" as="sourcePoint" />
            <mxPoint x="450" y="110" as="targetPoint" />
          </mxGeometry>
        </mxCell>
        <mxCell id="-lu-DPMYhBikADUUlQfp-26" value="logic" style="rounded=0;whiteSpace=wrap;html=1;" vertex="1" parent="1">
          <mxGeometry x="580" y="120" width="40" height="41" as="geometry" />
        </mxCell>
        <mxCell id="-lu-DPMYhBikADUUlQfp-27" value="" style="endArrow=classic;html=1;rounded=0;exitX=1;exitY=0.5;exitDx=0;exitDy=0;" edge="1" parent="1" source="-lu-DPMYhBikADUUlQfp-17" target="-lu-DPMYhBikADUUlQfp-26">
          <mxGeometry width="50" height="50" relative="1" as="geometry">
            <mxPoint x="740" y="141" as="sourcePoint" />
            <mxPoint x="790" y="91" as="targetPoint" />
          </mxGeometry>
        </mxCell>
        <mxCell id="-lu-DPMYhBikADUUlQfp-28" value="" style="endArrow=classic;html=1;rounded=0;entryX=1;entryY=0.75;entryDx=0;entryDy=0;exitX=0;exitY=0.75;exitDx=0;exitDy=0;" edge="1" parent="1" source="-lu-DPMYhBikADUUlQfp-26" target="-lu-DPMYhBikADUUlQfp-17">
          <mxGeometry width="50" height="50" relative="1" as="geometry">
            <mxPoint x="610" y="341" as="sourcePoint" />
            <mxPoint x="660" y="291" as="targetPoint" />
          </mxGeometry>
        </mxCell>
        <mxCell id="-lu-DPMYhBikADUUlQfp-29" value="" style="endArrow=classic;html=1;rounded=0;exitX=0;exitY=0.75;exitDx=0;exitDy=0;entryX=1;entryY=0.75;entryDx=0;entryDy=0;" edge="1" parent="1" source="-lu-DPMYhBikADUUlQfp-17" target="-lu-DPMYhBikADUUlQfp-4">
          <mxGeometry width="50" height="50" relative="1" as="geometry">
            <mxPoint x="400" y="210" as="sourcePoint" />
            <mxPoint x="450" y="160" as="targetPoint" />
          </mxGeometry>
        </mxCell>
        <mxCell id="-lu-DPMYhBikADUUlQfp-30" value="" style="endArrow=classic;html=1;rounded=0;exitX=0;exitY=0.75;exitDx=0;exitDy=0;" edge="1" parent="1" source="-lu-DPMYhBikADUUlQfp-4" target="-lu-DPMYhBikADUUlQfp-1">
          <mxGeometry width="50" height="50" relative="1" as="geometry">
            <mxPoint x="-20" y="200" as="sourcePoint" />
            <mxPoint x="30" y="150" as="targetPoint" />
          </mxGeometry>
        </mxCell>
        <mxCell id="-lu-DPMYhBikADUUlQfp-31" value="" style="endArrow=classic;html=1;rounded=0;exitX=0.5;exitY=1;exitDx=0;exitDy=0;" edge="1" parent="1" source="-lu-DPMYhBikADUUlQfp-26" target="-lu-DPMYhBikADUUlQfp-52">
          <mxGeometry width="50" height="50" relative="1" as="geometry">
            <mxPoint x="680" y="371" as="sourcePoint" />
            <mxPoint x="600" y="560" as="targetPoint" />
          </mxGeometry>
        </mxCell>
        <mxCell id="-lu-DPMYhBikADUUlQfp-72" style="edgeStyle=orthogonalEdgeStyle;rounded=0;orthogonalLoop=1;jettySize=auto;html=1;exitX=1;exitY=0.5;exitDx=0;exitDy=0;" edge="1" parent="1" source="-lu-DPMYhBikADUUlQfp-52">
          <mxGeometry relative="1" as="geometry">
            <mxPoint x="600" y="600" as="targetPoint" />
          </mxGeometry>
        </mxCell>
        <mxCell id="-lu-DPMYhBikADUUlQfp-75" style="edgeStyle=orthogonalEdgeStyle;rounded=0;orthogonalLoop=1;jettySize=auto;html=1;exitX=0;exitY=0.75;exitDx=0;exitDy=0;entryX=0.25;entryY=1;entryDx=0;entryDy=0;" edge="1" parent="1" source="-lu-DPMYhBikADUUlQfp-52" target="-lu-DPMYhBikADUUlQfp-26">
          <mxGeometry relative="1" as="geometry" />
        </mxCell>
        <mxCell id="-lu-DPMYhBikADUUlQfp-52" value="Database" style="rounded=1;whiteSpace=wrap;html=1;rotation=90;" vertex="1" parent="1">
          <mxGeometry x="560" y="500" width="80" height="40" as="geometry" />
        </mxCell>
        <mxCell id="-lu-DPMYhBikADUUlQfp-54" value="" style="rounded=1;whiteSpace=wrap;html=1;" vertex="1" parent="1">
          <mxGeometry x="800" y="80" width="120" height="440" as="geometry" />
        </mxCell>
        <mxCell id="-lu-DPMYhBikADUUlQfp-55" value="buy" style="rounded=1;whiteSpace=wrap;html=1;" vertex="1" parent="1">
          <mxGeometry x="760" y="120" width="80" height="40" as="geometry" />
        </mxCell>
        <mxCell id="-lu-DPMYhBikADUUlQfp-56" value="attack" style="rounded=1;whiteSpace=wrap;html=1;" vertex="1" parent="1">
          <mxGeometry x="760" y="200" width="80" height="40" as="geometry" />
        </mxCell>
        <mxCell id="-lu-DPMYhBikADUUlQfp-57" value="player&lt;br&gt;action1" style="rounded=1;whiteSpace=wrap;html=1;" vertex="1" parent="1">
          <mxGeometry x="760" y="280" width="80" height="40" as="geometry" />
        </mxCell>
        <mxCell id="-lu-DPMYhBikADUUlQfp-58" value="&lt;div&gt;player&lt;/div&gt;&lt;div&gt;action2&lt;br&gt;&lt;/div&gt;" style="rounded=1;whiteSpace=wrap;html=1;" vertex="1" parent="1">
          <mxGeometry x="760" y="360" width="80" height="40" as="geometry" />
        </mxCell>
        <mxCell id="-lu-DPMYhBikADUUlQfp-59" value="etc" style="rounded=1;whiteSpace=wrap;html=1;" vertex="1" parent="1">
          <mxGeometry x="760" y="440" width="80" height="40" as="geometry" />
        </mxCell>
        <mxCell id="-lu-DPMYhBikADUUlQfp-60" value="Player" style="text;html=1;strokeColor=none;fillColor=none;align=center;verticalAlign=middle;whiteSpace=wrap;rounded=0;" vertex="1" parent="1">
          <mxGeometry x="830" y="50" width="60" height="30" as="geometry" />
        </mxCell>
        <mxCell id="-lu-DPMYhBikADUUlQfp-61" value="logic" style="rounded=0;whiteSpace=wrap;html=1;" vertex="1" parent="1">
          <mxGeometry x="859" y="199" width="40" height="41" as="geometry" />
        </mxCell>
        <mxCell id="-lu-DPMYhBikADUUlQfp-62" value="" style="endArrow=classic;html=1;rounded=0;exitX=1;exitY=0.5;exitDx=0;exitDy=0;" edge="1" parent="1" target="-lu-DPMYhBikADUUlQfp-61">
          <mxGeometry width="50" height="50" relative="1" as="geometry">
            <mxPoint x="839" y="219" as="sourcePoint" />
            <mxPoint x="1069" y="170" as="targetPoint" />
          </mxGeometry>
        </mxCell>
        <mxCell id="-lu-DPMYhBikADUUlQfp-63" value="" style="endArrow=classic;html=1;rounded=0;entryX=1;entryY=0.75;entryDx=0;entryDy=0;exitX=0;exitY=0.75;exitDx=0;exitDy=0;" edge="1" parent="1" source="-lu-DPMYhBikADUUlQfp-61">
          <mxGeometry width="50" height="50" relative="1" as="geometry">
            <mxPoint x="889" y="420" as="sourcePoint" />
            <mxPoint x="839" y="229" as="targetPoint" />
          </mxGeometry>
        </mxCell>
        <mxCell id="-lu-DPMYhBikADUUlQfp-64" value="" style="endArrow=classic;html=1;rounded=0;exitX=0.5;exitY=1;exitDx=0;exitDy=0;entryX=0;entryY=0.5;entryDx=0;entryDy=0;" edge="1" parent="1" source="-lu-DPMYhBikADUUlQfp-61" target="-lu-DPMYhBikADUUlQfp-68">
          <mxGeometry width="50" height="50" relative="1" as="geometry">
            <mxPoint x="959" y="371" as="sourcePoint" />
            <mxPoint x="879" y="490" as="targetPoint" />
          </mxGeometry>
        </mxCell>
        <mxCell id="-lu-DPMYhBikADUUlQfp-71" style="edgeStyle=orthogonalEdgeStyle;rounded=0;orthogonalLoop=1;jettySize=auto;html=1;exitX=1;exitY=0.5;exitDx=0;exitDy=0;" edge="1" parent="1" source="-lu-DPMYhBikADUUlQfp-68">
          <mxGeometry relative="1" as="geometry">
            <mxPoint x="879" y="600" as="targetPoint" />
          </mxGeometry>
        </mxCell>
        <mxCell id="-lu-DPMYhBikADUUlQfp-74" style="edgeStyle=orthogonalEdgeStyle;rounded=0;orthogonalLoop=1;jettySize=auto;html=1;exitX=0;exitY=0.75;exitDx=0;exitDy=0;entryX=0.25;entryY=1;entryDx=0;entryDy=0;" edge="1" parent="1" source="-lu-DPMYhBikADUUlQfp-68" target="-lu-DPMYhBikADUUlQfp-61">
          <mxGeometry relative="1" as="geometry" />
        </mxCell>
        <mxCell id="-lu-DPMYhBikADUUlQfp-68" value="Database" style="rounded=1;whiteSpace=wrap;html=1;rotation=90;" vertex="1" parent="1">
          <mxGeometry x="839" y="500" width="80" height="40" as="geometry" />
        </mxCell>
      </root>
    </mxGraphModel>
  </diagram>
</mxfile>
